<svg width="53" height="53" viewBox="0 0 53 53" fill="none" xmlns="http://www.w3.org/2000/svg">
<path d="M28.1489 0.44879C27.1345 -0.149597 25.8821 -0.149597 24.8575 0.44879L1.67273 14.1262C0.368593 14.8956 -0.273127 16.477 0.109835 17.973C0.492797 19.469 1.81764 20.5161 3.31844 20.5161H6.63054V42.7419L1.33117 46.8452C0.492797 47.4863 0.00633162 48.5014 0.00633162 49.5806C0.00633162 51.472 1.48643 53 3.31844 53H49.6879C51.5199 53 53 51.472 53 49.5806C53 48.5014 52.5135 47.4863 51.6752 46.8452L46.3758 42.7419V20.5161H49.6879C51.1887 20.5161 52.5032 19.469 52.8862 17.973C53.2691 16.477 52.6274 14.8956 51.3232 14.1262L28.1385 0.44879H28.1489ZM41.4076 20.5161V42.7419H34.7834V20.5161H41.4076ZM29.8153 20.5161V42.7419H23.1911V20.5161H29.8153ZM18.2229 20.5161V42.7419H11.5987V20.5161H18.2229ZM26.5032 8.54839C28.3352 8.54839 29.8153 10.0764 29.8153 11.9677C29.8153 13.8591 28.3352 15.3871 26.5032 15.3871C24.6712 15.3871 23.1911 13.8591 23.1911 11.9677C23.1911 10.0764 24.6712 8.54839 26.5032 8.54839Z" fill="#F7F7F7"/>
</svg>
