<svg width="54" height="53" viewBox="0 0 54 53" fill="none" xmlns="http://www.w3.org/2000/svg">
<path fill-rule="evenodd" clip-rule="evenodd" d="M26.5232 0.00244395H26.806C32.5333 0.00244395 37.0204 0.0024441 40.5227 0.466773C44.1045 0.940877 46.9322 1.93308 49.1522 4.11787C51.3721 6.3051 52.3767 9.09107 52.8579 12.6224C53.3292 16.0707 53.3292 20.4916 53.3292 26.1344V26.3495C53.3292 31.0147 53.3292 34.832 53.0712 37.9406C52.8133 41.0687 52.2849 43.6763 51.0993 45.8464C50.5801 46.8011 49.931 47.6622 49.1522 48.4295C46.9322 50.6167 44.1045 51.6065 40.5203 52.0806C37.0204 52.5449 32.5333 52.5449 26.806 52.5449H26.5232C20.7959 52.5449 16.3088 52.5449 12.8064 52.0806C9.22471 51.6065 6.39702 50.6143 4.17704 48.4295C2.21006 46.4916 1.19309 44.0795 0.654833 41.0833C0.121541 38.1434 0.0248042 34.485 0.00496079 29.9443C0.00165355 28.7876 0 27.564 0 26.2737V26.132C0 20.4891 1.47845e-07 16.0682 0.471281 12.6175C0.952484 9.08863 1.95954 6.30266 4.17704 4.11542C6.39702 1.92819 9.22471 0.938434 12.8089 0.464329C16.3088 1.45664e-07 20.7959 0 26.5232 0M13.3025 4.09587C10.1325 4.51621 8.22014 5.31779 6.80877 6.70833C5.39493 8.10132 4.58383 9.98307 4.1572 13.1087C3.7256 16.2857 3.72064 20.4598 3.72064 26.2712V28.3338L6.20355 26.193C7.29264 25.2538 8.70338 24.7574 10.15 24.8046C11.5966 24.8518 12.9709 25.439 13.9946 26.4472L24.6356 36.9313C25.4614 37.7447 26.5519 38.245 27.7152 38.3443C28.8785 38.4435 30.0401 38.1353 30.9954 37.4738L31.7346 36.9606C33.1129 36.0064 34.7791 35.5411 36.4606 35.641C38.1422 35.7409 39.7396 36.4 40.9915 37.5105L48.0112 43.7349C48.7206 42.2735 49.1397 40.3526 49.363 37.6424C49.6061 34.6976 49.6086 31.027 49.6086 26.2712C49.6086 20.4598 49.6036 16.2857 49.172 13.1087C48.7454 9.98307 47.9318 8.09888 46.5204 6.70589C45.1066 5.31535 43.1966 4.51621 40.0242 4.09587C36.7996 3.67064 32.5631 3.66576 26.6646 3.66576C20.7661 3.66576 16.5271 3.67064 13.3025 4.09587Z" fill="#F7F7F7"/>
</svg>
