<svg width="54" height="53" viewBox="0 0 54 53" fill="none" xmlns="http://www.w3.org/2000/svg">
<path fill-rule="evenodd" clip-rule="evenodd" d="M14.8129 23.6721C14.2689 23.1356 13.8374 22.4985 13.5431 21.7972C13.2487 21.096 13.0971 20.3444 13.0971 19.5853C13.0971 18.8263 13.2487 18.0747 13.5431 17.3734C13.8374 16.6722 14.2689 16.0351 14.8129 15.4985L28.8024 1.69357C29.3459 1.15667 29.9914 0.73075 30.7018 0.440159C31.4122 0.149569 32.1736 0 32.9426 0C33.7116 0 34.4731 0.149569 35.1835 0.440159C35.8939 0.73075 36.5393 1.15667 37.0829 1.69357L43.2601 7.79488C44.3575 8.87837 44.9739 10.3477 44.9739 11.8797C44.9739 13.4118 44.3575 14.8811 43.2601 15.9646L38.355 20.8025L53.1445 35.3971C53.4161 35.6657 53.6314 35.9845 53.7782 36.3352C53.925 36.686 54.0004 37.0618 54 37.4413C53.9996 37.8208 53.9236 38.1965 53.7761 38.547C53.6286 38.8975 53.4127 39.2158 53.1406 39.4839C52.8685 39.752 52.5455 39.9646 52.1902 40.1095C51.8349 40.2544 51.4541 40.3288 51.0696 40.3284C50.6852 40.328 50.3045 40.2529 49.9495 40.1074C49.5944 39.9618 49.2719 39.7487 49.0003 39.4801L34.2187 24.8932L29.2706 29.7734C28.1731 30.8554 26.6854 31.4632 25.1343 31.4632C23.5831 31.4632 22.0954 30.8554 20.9979 29.7734L14.8129 23.6721ZM4.87779 47.2222H2.92667C2.15047 47.2222 1.40606 47.5266 0.857203 48.0684C0.308345 48.6101 0 49.3449 0 50.1111C0 50.8773 0.308345 51.6121 0.857203 52.1539C1.40606 52.6956 2.15047 53 2.92667 53H32.1934C32.9696 53 33.714 52.6956 34.2629 52.1539C34.8117 51.6121 35.1201 50.8773 35.1201 50.1111C35.1201 49.3449 34.8117 48.6101 34.2629 48.0684C33.714 47.5266 32.9696 47.2222 32.1934 47.2222H30.2423V40.4815C30.2423 39.9708 30.0367 39.4809 29.6708 39.1197C29.3049 38.7585 28.8086 38.5556 28.2912 38.5556H6.8289C6.31144 38.5556 5.81516 38.7585 5.44926 39.1197C5.08335 39.4809 4.87779 39.9708 4.87779 40.4815V47.2222Z" fill="#F7F7F7"/>
</svg>
