<svg width="178" height="174" viewBox="0 0 178 174" fill="none" xmlns="http://www.w3.org/2000/svg">
<path fill-rule="evenodd" clip-rule="evenodd" d="M24.1753 27.6013C24.0948 29.7428 24.2374 32.2012 24.2393 35.1673C7.94521 54.8695 2.60437 77.691 7.12398 103.316C7.45143 105.053 6.63505 106.193 4.72358 106.45C3.54462 106.608 2.65872 106.447 2.27731 104.396C-3.30891 79.0919 0.889893 53.5649 24.1753 27.6013Z" fill="white" stroke="white" stroke-width="0.133417" stroke-miterlimit="22.9256"/>
<path fill-rule="evenodd" clip-rule="evenodd" d="M69.3479 112.095C67.4938 112.494 66.8877 114.396 64.8982 115.176C47.8151 105.939 29.2078 106.499 9.71684 118.094C8.49648 118.752 6.71989 118.992 6.06647 117.683C5.66436 116.876 4.96955 114.719 6.41165 113.947C24.4956 102.052 44.9478 99.5366 69.3479 112.095Z" fill="white" stroke="white" stroke-width="0.133417" stroke-miterlimit="22.9256"/>
<path fill-rule="evenodd" clip-rule="evenodd" d="M46.0914 11.3974C47.3712 12.7752 48.6507 14.0305 49.9306 15.4083C79.3522 -0.349022 116.323 0.770441 145.029 27.2536C177.232 58.1174 175.693 94.0504 165.484 118.501C153.038 143.502 132.468 164.334 94.6901 168.045C71.2295 168.713 37.9354 164.038 16.492 128.004C25.9799 121.916 36.8762 119.224 49.7214 123.009C52.0704 121.898 54.4206 120.788 56.7697 119.677C30.5745 109.8 19.0817 119.431 9.94377 126.502C8.05115 127.966 23.6249 154.662 54.0972 166.073C83.4415 178.183 111.947 174.694 139.947 157.192C162.922 139.864 180.229 116.48 176.58 74.4004C172.849 52.7085 163.813 33.0817 139.458 16.0397C110.647 -2.50351 79.6452 -6.00576 46.0914 11.3974Z" fill="white" stroke="white" stroke-width="0.133417" stroke-miterlimit="22.9256"/>
<path fill-rule="evenodd" clip-rule="evenodd" d="M31.1898 70.4788C31.2815 54.3668 31.3717 38.2549 31.463 22.1429C32.014 18.2878 36.4157 16.1384 38.9636 16.3188C41.1807 16.4753 46.2329 18.8135 46.1235 22.4838C46.0891 38.1494 45.9494 54.3375 45.9151 70.0031C51.1491 73.4321 53.3481 79.8261 52.0845 84.9286C50.8275 90.0093 46.1331 94.423 38.6288 94.9791C30.9625 95.0798 24.703 88.8398 24.4594 82.9646C24.2214 77.2477 26.8162 71.791 31.1898 70.4788Z" stroke="white" stroke-width="2.66683" stroke-miterlimit="22.9256"/>
<path fill-rule="evenodd" clip-rule="evenodd" d="M36.5128 73.5965C36.5397 63.6996 36.5667 53.8026 36.5937 43.9053C36.7567 41.5374 38.0602 40.2173 38.8145 40.3278C39.4709 40.4241 40.967 41.8603 40.9348 44.1148C40.9245 53.7378 40.8831 63.6815 40.8731 73.3045C42.4227 75.4109 43.0739 79.3381 42.6999 82.4726C42.3278 85.5936 40.9374 88.3046 38.7155 88.6462C36.5446 88.5057 34.6061 84.6557 34.4265 81.2661C34.2409 77.7708 35.2174 74.4026 36.5128 73.5965Z" fill="white" stroke="white" stroke-width="1.00006" stroke-miterlimit="22.9256"/>
<path d="M38.5031 89.2627C42.8479 89.2627 46.37 85.8101 46.37 81.5511C46.37 77.2921 42.8479 73.8395 38.5031 73.8395C34.1583 73.8395 30.6362 77.2921 30.6362 81.5511C30.6362 85.8101 34.1583 89.2627 38.5031 89.2627Z" fill="white" stroke="white" stroke-width="0.755906" stroke-miterlimit="22.9256"/>
<path d="M90.7572 87.2172C94.724 98.4546 105.637 104.223 121.071 103.669C125.314 103.045 126.629 99.4628 126.946 94.7238C127.333 90.7821 127.668 87.1483 128.055 83.2067C138.758 86.3006 126.674 64.5667 129.795 64.1656C131.852 63.9008 130.685 52.8482 129.221 48.0953C126.476 38.1426 118.119 31.4878 107.297 28.3529C90.5337 24.7945 77.6545 29.2007 68.0654 47.9424C63.1614 60.2352 67.5487 79.574 78.2414 89.7401" stroke="white" stroke-width="2.66683" stroke-miterlimit="22.9256"/>
<path d="M129.191 48.0853C112.268 45.9699 99.5373 50.885 95.2036 69.0624C93.9896 71.0137 92.0541 70.6517 90.273 69.9877C88.8934 63.5756 85.1159 63.1343 80.0978 65.7717C74.6975 70.2098 78.3197 75.2078 80.9382 80.0672C81.2701 93.6754 81.2863 107.181 81.6182 120.789" stroke="white" stroke-width="2.66683" stroke-miterlimit="22.9256"/>
<path d="M162.284 131.852C156.295 125.424 148.931 121.203 141.724 118.433C133.822 115.67 124.348 113.124 116.446 111.458" stroke="white" stroke-width="2.66683" stroke-miterlimit="22.9256"/>
<path d="M81.3016 92.7885L77.21 88.6751" stroke="white" stroke-width="2.66683" stroke-miterlimit="22.9256"/>
<path d="M116.633 118.011L116.789 103.695" stroke="white" stroke-width="2.66683" stroke-miterlimit="22.9256"/>
<path d="M136.845 117.039C132.201 138.638 121.667 155.116 108.627 167.939" stroke="white" stroke-width="2.66683" stroke-miterlimit="22.9256"/>
<path d="M128.141 114.676C112.131 138.51 85.0596 154.252 58.4897 165.06" stroke="white" stroke-width="2.66683" stroke-miterlimit="22.9256"/>
<path d="M81.4624 112.367C72.1578 118.326 62.3414 124.369 52.1957 129.232C45.2793 131.935 39.6713 139.69 34.9932 152.265" stroke="white" stroke-width="2.66683" stroke-miterlimit="22.9256"/>
<path d="M63.8735 123.74C76.7316 135.929 94.633 136.409 113.648 131.865" stroke="white" stroke-width="2.66683" stroke-miterlimit="22.9256"/>
<path d="M157.01 115.579C163.642 95.1185 165.425 73.8708 153.549 51.6239C139.974 29.7019 120.588 15.897 89.459 14.6098" stroke="white" stroke-width="2.66683" stroke-miterlimit="22.9256"/>
<path d="M60.3319 50.5375C60.3319 49.899 58.2814 49.3814 55.7519 49.3814C53.2224 49.3814 51.1719 49.899 51.1719 50.5375C51.1719 51.1759 53.2224 51.6935 55.7519 51.6935C58.2814 51.6935 60.3319 51.1759 60.3319 50.5375Z" fill="white" stroke="white" stroke-width="0.755906" stroke-miterlimit="22.9256"/>
<path d="M56.8506 56.8779C56.8506 56.3617 55.578 55.9432 54.0083 55.9432C52.4385 55.9432 51.166 56.3617 51.166 56.8779C51.166 57.3941 52.4385 57.8127 54.0083 57.8127C55.578 57.8127 56.8506 57.3941 56.8506 56.8779Z" fill="white" stroke="white" stroke-width="0.755906" stroke-miterlimit="22.9256"/>
<path d="M59.6181 63.809C59.6181 63.0418 57.7268 62.4198 55.3938 62.4198C53.0607 62.4198 51.1694 63.0418 51.1694 63.809C51.1694 64.5762 53.0607 65.1982 55.3938 65.1982C57.7268 65.1982 59.6181 64.5762 59.6181 63.809Z" fill="white" stroke="white" stroke-width="0.755906" stroke-miterlimit="22.9256"/>
<path d="M56.8042 42.9966C56.8042 42.4804 55.5316 42.0619 53.9619 42.0619C52.3922 42.0619 51.1196 42.4804 51.1196 42.9966C51.1196 43.5128 52.3922 43.9313 53.9619 43.9313C55.5316 43.9313 56.8042 43.5128 56.8042 42.9966Z" fill="white" stroke="white" stroke-width="0.755906" stroke-miterlimit="22.9256"/>
<path d="M56.218 36.2467C56.218 35.8354 55.0767 35.5019 53.6688 35.5019C52.261 35.5019 51.1196 35.8354 51.1196 36.2467C51.1196 36.6581 52.261 36.9916 53.6688 36.9916C55.0767 36.9916 56.218 36.6581 56.218 36.2467Z" fill="white" stroke="white" stroke-width="0.755906" stroke-miterlimit="22.9256"/>
<path d="M60.3319 29.5608C60.3319 28.9223 58.2814 28.4047 55.7519 28.4047C53.2224 28.4047 51.1719 28.9223 51.1719 29.5608C51.1719 30.1993 53.2224 30.7168 55.7519 30.7168C58.2814 30.7168 60.3319 30.1993 60.3319 29.5608Z" fill="white" stroke="white" stroke-width="0.755906" stroke-miterlimit="22.9256"/>
<path fill-rule="evenodd" clip-rule="evenodd" d="M32.4622 139.176C30.6742 138.392 23.3317 132.407 25.3471 130.462C28.4696 127.45 41.6637 127.934 41.715 128.302C41.7864 128.812 33.0661 139.441 32.4622 139.176Z" fill="white" stroke="white" stroke-width="0.755906" stroke-miterlimit="22.9256"/>
</svg>
