<svg width="73" height="71" viewBox="0 0 73 71" fill="none" xmlns="http://www.w3.org/2000/svg">
<path fill-rule="evenodd" clip-rule="evenodd" d="M9.91475 11.232C9.88184 12.1004 9.94012 13.0973 9.94088 14.3C3.28488 22.2892 1.10319 31.5433 2.94941 41.9342C3.08317 42.6385 2.74969 43.1009 1.96887 43.205C1.48727 43.2693 1.12539 43.2038 0.969587 42.3721C-1.31234 32.1114 0.402839 21.7602 9.91475 11.232Z" fill="white" stroke="white" stroke-width="0.133417" stroke-miterlimit="22.9256"/>
<path fill-rule="evenodd" clip-rule="evenodd" d="M28.3674 45.4939C27.61 45.6559 27.3624 46.4273 26.5497 46.7435C19.5714 42.9977 11.9705 43.2251 4.00857 47.9268C3.51006 48.1933 2.78434 48.291 2.51742 47.7601C2.35317 47.4328 2.06934 46.5579 2.65843 46.2452C10.0456 41.4218 18.4002 40.4017 28.3674 45.4939Z" fill="white" stroke="white" stroke-width="0.133417" stroke-miterlimit="22.9256"/>
<path fill-rule="evenodd" clip-rule="evenodd" d="M18.8673 4.6613C19.3901 5.21998 19.9128 5.72901 20.4356 6.2877C32.4541 -0.101864 47.5563 0.352077 59.2825 11.091C72.437 23.6062 71.8086 38.1771 67.6381 48.0918C62.5543 58.2297 54.1513 66.677 38.7195 68.1819C29.1361 68.4526 15.5357 66.5571 6.77622 51.9453C10.6519 49.4764 15.103 48.3849 20.3502 49.9196C21.3097 49.4692 22.2698 49.0192 23.2293 48.5686C12.5288 44.5635 7.83408 48.4689 4.10133 51.3361C3.32821 51.9299 9.68996 62.755 22.1376 67.3823C34.1246 72.2929 45.7688 70.8778 57.2067 63.781C66.5919 56.7546 73.6614 47.2722 72.1709 30.209C70.6468 21.4129 66.9556 13.4543 57.0068 6.54377C45.2378 -0.975509 32.5738 -2.39567 18.8673 4.6613Z" fill="white" stroke="white" stroke-width="0.133417" stroke-miterlimit="22.9256"/>
<path fill-rule="evenodd" clip-rule="evenodd" d="M12.7799 28.6187C12.8173 22.0853 12.8542 15.5519 12.8915 9.01856C13.1166 7.45532 14.9146 6.58371 15.9554 6.65687C16.8611 6.72034 18.9249 7.66847 18.8802 9.15679C18.8661 15.5092 18.8091 22.0734 18.795 28.4258C20.9331 29.8163 21.8314 32.4091 21.3152 34.4781C20.8017 36.5383 18.8841 38.3281 15.8186 38.5536C12.6871 38.5944 10.1301 36.0641 10.0306 33.6817C9.93335 31.3635 10.9933 29.1508 12.7799 28.6187Z" stroke="white" stroke-width="2.66683" stroke-miterlimit="22.9256"/>
<path fill-rule="evenodd" clip-rule="evenodd" d="M14.9545 29.883C14.9655 25.8698 14.9766 21.8566 14.9876 17.8432C15.0542 16.8831 15.5866 16.3477 15.8948 16.3925C16.1629 16.4316 16.774 17.014 16.7609 17.9282C16.7567 21.8303 16.7397 25.8625 16.7357 29.7646C17.3687 30.6187 17.6347 32.2112 17.4819 33.4822C17.3299 34.7478 16.7619 35.8471 15.8543 35.9856C14.9675 35.9286 14.1756 34.3675 14.1023 32.993C14.0265 31.5757 14.4254 30.2099 14.9545 29.883Z" fill="white" stroke="white" stroke-width="1.00006" stroke-miterlimit="22.9256"/>
<path d="M15.7675 36.2357C17.5423 36.2357 18.9811 34.8356 18.9811 33.1086C18.9811 31.3816 17.5423 29.9816 15.7675 29.9816C13.9927 29.9816 12.554 31.3816 12.554 33.1086C12.554 34.8356 13.9927 36.2357 15.7675 36.2357Z" fill="white" stroke="white" stroke-width="0.755906" stroke-miterlimit="22.9256"/>
<path d="M37.113 35.4062C38.7334 39.963 43.1914 42.3022 49.4961 42.0776C51.2291 41.8245 51.7663 40.3718 51.8958 38.4502C52.0539 36.8518 52.1908 35.3783 52.3488 33.78C56.7211 35.0346 51.7845 26.2215 53.0595 26.0589C53.8998 25.9515 53.4232 21.4696 52.825 19.5424C51.7038 15.5065 48.29 12.808 43.8693 11.5368C37.0217 10.0939 31.7607 11.8806 27.8436 19.4804C25.8403 24.4651 27.6325 32.3069 32.0004 36.4293" stroke="white" stroke-width="2.66683" stroke-miterlimit="22.9256"/>
<path d="M52.8128 19.5383C45.8998 18.6805 40.6993 20.6736 38.929 28.0445C38.4331 28.8357 37.6425 28.6889 36.9149 28.4197C36.3514 25.8196 34.8083 25.6406 32.7584 26.7101C30.5524 28.5097 32.0321 30.5364 33.1017 32.5069C33.2373 38.025 33.2439 43.5016 33.3795 49.0195" stroke="white" stroke-width="2.66683" stroke-miterlimit="22.9256"/>
<path d="M66.331 53.5055C63.8847 50.8992 60.8763 49.1874 57.9325 48.0642C54.7046 46.9439 50.8346 45.9114 47.6067 45.236" stroke="white" stroke-width="2.66683" stroke-miterlimit="22.9256"/>
<path d="M33.2503 37.6654L31.5789 35.9974" stroke="white" stroke-width="2.66683" stroke-miterlimit="22.9256"/>
<path d="M47.6826 47.8932L47.7463 42.0877" stroke="white" stroke-width="2.66683" stroke-miterlimit="22.9256"/>
<path d="M55.9396 47.4987C54.0425 56.2573 49.7395 62.9391 44.4128 68.1387" stroke="white" stroke-width="2.66683" stroke-miterlimit="22.9256"/>
<path d="M52.3834 46.5407C45.8437 56.2054 34.7852 62.5888 23.9316 66.9715" stroke="white" stroke-width="2.66683" stroke-miterlimit="22.9256"/>
<path d="M33.3161 45.6044C29.5152 48.0207 25.5053 50.4711 21.3608 52.443C18.5356 53.5391 16.2447 56.6839 14.3337 61.7829" stroke="white" stroke-width="2.66683" stroke-miterlimit="22.9256"/>
<path d="M26.1309 50.2162C31.3833 55.1586 38.6959 55.3534 46.4635 53.5107" stroke="white" stroke-width="2.66683" stroke-miterlimit="22.9256"/>
<path d="M64.1765 46.9068C66.8855 38.6101 67.614 29.9942 62.763 20.9731C57.2174 12.0838 49.2986 6.48588 36.5825 5.96392" stroke="white" stroke-width="2.66683" stroke-miterlimit="22.9256"/>
<path d="M24.6844 20.5325C24.6844 20.2736 23.8468 20.0637 22.8135 20.0637C21.7803 20.0637 20.9426 20.2736 20.9426 20.5325C20.9426 20.7914 21.7803 21.0013 22.8135 21.0013C23.8468 21.0013 24.6844 20.7914 24.6844 20.5325Z" fill="white" stroke="white" stroke-width="0.755906" stroke-miterlimit="22.9256"/>
<path d="M23.2623 23.1037C23.2623 22.8944 22.7425 22.7247 22.1012 22.7247C21.46 22.7247 20.9402 22.8944 20.9402 23.1037C20.9402 23.313 21.46 23.4827 22.1012 23.4827C22.7425 23.4827 23.2623 23.313 23.2623 23.1037Z" fill="white" stroke="white" stroke-width="0.755906" stroke-miterlimit="22.9256"/>
<path d="M24.3931 25.9142C24.3931 25.6031 23.6205 25.3509 22.6675 25.3509C21.7145 25.3509 20.9419 25.6031 20.9419 25.9142C20.9419 26.2253 21.7145 26.4775 22.6675 26.4775C23.6205 26.4775 24.3931 26.2253 24.3931 25.9142Z" fill="white" stroke="white" stroke-width="0.755906" stroke-miterlimit="22.9256"/>
<path d="M23.2432 17.4748C23.2432 17.2655 22.7234 17.0958 22.0822 17.0958C21.441 17.0958 20.9211 17.2655 20.9211 17.4748C20.9211 17.6841 21.441 17.8538 22.0822 17.8538C22.7234 17.8538 23.2432 17.6841 23.2432 17.4748Z" fill="white" stroke="white" stroke-width="0.755906" stroke-miterlimit="22.9256"/>
<path d="M23.0038 14.7376C23.0038 14.5708 22.5376 14.4356 21.9625 14.4356C21.3874 14.4356 20.9211 14.5708 20.9211 14.7376C20.9211 14.9045 21.3874 15.0397 21.9625 15.0397C22.5376 15.0397 23.0038 14.9045 23.0038 14.7376Z" fill="white" stroke="white" stroke-width="0.755906" stroke-miterlimit="22.9256"/>
<path d="M24.6844 12.0266C24.6844 11.7677 23.8468 11.5578 22.8135 11.5578C21.7803 11.5578 20.9426 11.7677 20.9426 12.0266C20.9426 12.2855 21.7803 12.4954 22.8135 12.4954C23.8468 12.4954 24.6844 12.2855 24.6844 12.0266Z" fill="white" stroke="white" stroke-width="0.755906" stroke-miterlimit="22.9256"/>
<path fill-rule="evenodd" clip-rule="evenodd" d="M13.3 56.4756C12.5696 56.1574 9.57023 53.7305 10.3935 52.9419C11.669 51.7207 17.0587 51.917 17.0797 52.0661C17.1088 52.2729 13.5467 56.583 13.3 56.4756Z" fill="white" stroke="white" stroke-width="0.755906" stroke-miterlimit="22.9256"/>
</svg>
