<svg width="149" height="24" viewBox="0 0 149 24" fill="none" xmlns="http://www.w3.org/2000/svg">
<path d="M18.016 0.351999C17.8667 1.86667 17.792 3.232 17.792 4.448C17.792 5.51466 17.824 6.38933 17.888 7.072H17.152C16.9814 5.42933 16.768 4.21333 16.512 3.424C16.256 2.61333 15.808 2.02666 15.168 1.664C14.528 1.28 13.5467 1.088 12.224 1.088H10.496V19.296C10.496 20.192 10.5814 20.8427 10.752 21.248C10.9227 21.6533 11.2214 21.9307 11.648 22.08C12.0747 22.2293 12.768 22.3253 13.728 22.368V23.008C12.6187 22.944 11.0507 22.912 9.02402 22.912C6.89069 22.912 5.31202 22.944 4.28802 23.008V22.368C5.24802 22.3253 5.94136 22.2293 6.36802 22.08C6.79469 21.9307 7.09336 21.6533 7.26402 21.248C7.43469 20.8427 7.52002 20.192 7.52002 19.296V1.088H5.79202C4.46935 1.088 3.48802 1.28 2.84802 1.664C2.20802 2.02666 1.76002 2.61333 1.50402 3.424C1.24802 4.21333 1.03469 5.42933 0.864022 7.072H0.128021C0.192022 6.38933 0.224022 5.51466 0.224022 4.448C0.224022 3.232 0.149355 1.86667 2.15173e-05 0.351999C1.77069 0.415998 4.77869 0.447998 9.02402 0.447998C13.248 0.447998 16.2454 0.415998 18.016 0.351999ZM41.827 0.991999C41.059 1.03466 40.4937 1.12 40.131 1.248C39.7897 1.376 39.555 1.62133 39.427 1.984C39.299 2.34667 39.235 2.93333 39.235 3.744V19.616C39.235 20.4267 39.299 21.0133 39.427 21.376C39.555 21.7387 39.7897 21.984 40.131 22.112C40.4937 22.24 41.059 22.3253 41.827 22.368V23.008C40.931 22.944 39.5657 22.912 37.731 22.912C36.003 22.912 34.6484 22.944 33.667 23.008V22.368C34.435 22.3253 34.9897 22.24 35.331 22.112C35.6937 21.984 35.939 21.7387 36.067 21.376C36.195 21.0133 36.259 20.4267 36.259 19.616V11.936H25.859V19.616C25.859 20.4267 25.923 21.0133 26.051 21.376C26.179 21.7387 26.4137 21.984 26.755 22.112C27.1177 22.24 27.683 22.3253 28.451 22.368V23.008C27.4697 22.944 26.115 22.912 24.387 22.912C22.5524 22.912 21.187 22.944 20.291 23.008V22.368C21.059 22.3253 21.6137 22.24 21.955 22.112C22.3177 21.984 22.563 21.7387 22.691 21.376C22.819 21.0133 22.883 20.4267 22.883 19.616V3.744C22.883 2.93333 22.819 2.34667 22.691 1.984C22.563 1.62133 22.3177 1.376 21.955 1.248C21.6137 1.12 21.059 1.03466 20.291 0.991999V0.351999C21.187 0.415998 22.5524 0.447998 24.387 0.447998C26.0937 0.447998 27.4484 0.415998 28.451 0.351999V0.991999C27.683 1.03466 27.1177 1.12 26.755 1.248C26.4137 1.376 26.179 1.62133 26.051 1.984C25.923 2.34667 25.859 2.93333 25.859 3.744V11.296H36.259V3.744C36.259 2.93333 36.195 2.34667 36.067 1.984C35.939 1.62133 35.6937 1.376 35.331 1.248C34.9897 1.12 34.435 1.03466 33.667 0.991999V0.351999C34.6484 0.415998 36.003 0.447998 37.731 0.447998C39.5657 0.447998 40.931 0.415998 41.827 0.351999V0.991999ZM60.8938 18.912C60.8938 20.128 60.9684 21.4933 61.1178 23.008C59.6671 22.944 57.2244 22.912 53.7898 22.912C49.6938 22.912 46.6004 22.944 44.5098 23.008V22.368C45.2778 22.3253 45.8324 22.24 46.1738 22.112C46.5364 21.984 46.7818 21.7387 46.9098 21.376C47.0378 21.0133 47.1018 20.4267 47.1018 19.616V3.744C47.1018 2.93333 47.0378 2.34667 46.9098 1.984C46.7818 1.62133 46.5364 1.376 46.1738 1.248C45.8324 1.12 45.2778 1.03466 44.5098 0.991999V0.351999C46.6004 0.415998 49.6938 0.447998 53.7898 0.447998C56.9258 0.447998 59.1551 0.415998 60.4778 0.351999C60.3284 1.76 60.2538 3.01867 60.2538 4.128C60.2538 4.96 60.2858 5.62133 60.3498 6.112H59.6138C59.4644 4.72533 59.2724 3.70133 59.0378 3.04C58.8031 2.35733 58.4084 1.86667 57.8538 1.568C57.2991 1.248 56.4564 1.088 55.3258 1.088H52.6698C51.9018 1.088 51.3364 1.152 50.9738 1.28C50.6324 1.38667 50.3978 1.62133 50.2698 1.984C50.1418 2.34667 50.0778 2.93333 50.0778 3.744V11.296H52.1898C52.9364 11.296 53.5124 11.1253 53.9178 10.784C54.3231 10.4213 54.5898 10.0053 54.7178 9.536C54.8671 9.04533 54.9844 8.43733 55.0698 7.712L55.1658 7.072H55.9018C55.8378 7.968 55.8058 8.97067 55.8058 10.08V11.616C55.8058 12.704 55.8698 14.2187 55.9978 16.16H55.2618C55.2404 16.0107 55.1764 15.4987 55.0698 14.624C54.9631 13.728 54.6644 13.056 54.1738 12.608C53.7044 12.16 53.0431 11.936 52.1898 11.936H50.0778V19.616C50.0778 20.4267 50.1418 21.0133 50.2698 21.376C50.3978 21.7387 50.6324 21.984 50.9738 22.112C51.3364 22.2187 51.9018 22.272 52.6698 22.272H55.0058C56.3284 22.272 57.3311 22.1013 58.0138 21.76C58.7178 21.3973 59.2298 20.832 59.5498 20.064C59.8698 19.2747 60.1044 18.1227 60.2538 16.608H60.9898C60.9258 17.184 60.8938 17.952 60.8938 18.912ZM83.7858 21.408C83.2951 22.1333 82.8044 22.656 82.3138 22.976C81.8231 23.296 81.1724 23.456 80.3618 23.456C79.4871 23.456 78.7618 23.2 78.1858 22.688C77.6311 22.176 77.2151 21.28 76.9378 20L76.2338 16.8C75.9778 15.6907 75.7324 14.8373 75.4978 14.24C75.2844 13.6427 74.9538 13.1627 74.5058 12.8C74.0578 12.4373 73.4284 12.256 72.6178 12.256H69.5778V19.616C69.5778 20.4267 69.6418 21.0133 69.7698 21.376C69.8978 21.7387 70.1324 21.984 70.4738 22.112C70.8364 22.24 71.4018 22.3253 72.1698 22.368V23.008C71.1884 22.944 69.8338 22.912 68.1058 22.912C66.2711 22.912 64.9058 22.944 64.0098 23.008V22.368C64.7778 22.3253 65.3324 22.24 65.6738 22.112C66.0364 21.984 66.2818 21.7387 66.4098 21.376C66.5378 21.0133 66.6018 20.4267 66.6018 19.616V3.744C66.6018 2.93333 66.5378 2.34667 66.4098 1.984C66.2818 1.62133 66.0364 1.376 65.6738 1.248C65.3324 1.12 64.7778 1.03466 64.0098 0.991999V0.351999C64.9058 0.415998 66.2071 0.447998 67.9138 0.447998L71.3698 0.415998C71.7751 0.394665 72.2338 0.383999 72.7458 0.383999C75.2204 0.383999 77.1191 0.906665 78.4418 1.952C79.7858 2.976 80.4578 4.30933 80.4578 5.952C80.4578 6.784 80.2551 7.62667 79.8498 8.48C79.4658 9.312 78.8044 10.0693 77.8658 10.752C76.9484 11.4133 75.7431 11.8613 74.2498 12.096L74.6338 12.16C76.0418 12.3947 77.0658 12.8213 77.7058 13.44C78.3458 14.0587 78.8151 15.04 79.1138 16.384L79.9138 19.648C80.1271 20.6293 80.3511 21.312 80.5858 21.696C80.8204 22.08 81.1404 22.272 81.5458 22.272C81.9084 22.272 82.2071 22.176 82.4418 21.984C82.6978 21.792 82.9858 21.4827 83.3058 21.056L83.7858 21.408ZM71.9458 0.991999C71.2844 0.991999 70.7831 1.06667 70.4418 1.216C70.1218 1.36533 69.8978 1.632 69.7698 2.016C69.6418 2.4 69.5778 2.976 69.5778 3.744V11.616H71.7218C73.8338 11.616 75.2844 11.1467 76.0738 10.208C76.8631 9.26933 77.2578 7.968 77.2578 6.304C77.2578 4.55467 76.8418 3.232 76.0098 2.336C75.1778 1.44 73.8231 0.991999 71.9458 0.991999ZM109.944 0.991999C109.176 1.03466 108.61 1.12 108.248 1.248C107.906 1.376 107.672 1.62133 107.544 1.984C107.416 2.34667 107.352 2.93333 107.352 3.744V19.616C107.352 20.4267 107.416 21.0133 107.544 21.376C107.672 21.7387 107.906 21.984 108.248 22.112C108.61 22.24 109.176 22.3253 109.944 22.368V23.008C108.962 22.944 107.608 22.912 105.88 22.912C104.045 22.912 102.68 22.944 101.784 23.008V22.368C102.552 22.3253 103.106 22.24 103.448 22.112C103.81 21.984 104.056 21.7387 104.184 21.376C104.312 21.0133 104.376 20.4267 104.376 19.616V2.464L96.6638 23.168H96.1518L88.0878 2.4V19.296C88.0878 20.128 88.1518 20.7467 88.2798 21.152C88.4291 21.5573 88.7064 21.856 89.1118 22.048C89.5171 22.2187 90.1464 22.3253 90.9998 22.368V23.008C90.2318 22.944 89.1438 22.912 87.7358 22.912C86.4558 22.912 85.4638 22.944 84.7598 23.008V22.368C85.5064 22.3253 86.0611 22.2187 86.4238 22.048C86.7864 21.856 87.0318 21.5573 87.1598 21.152C87.2878 20.7253 87.3518 20.1067 87.3518 19.296V3.744C87.3518 2.93333 87.2878 2.34667 87.1598 1.984C87.0318 1.62133 86.7864 1.376 86.4238 1.248C86.0824 1.12 85.5278 1.03466 84.7598 0.991999V0.351999C85.4638 0.415998 86.4558 0.447998 87.7358 0.447998C88.8451 0.447998 89.7518 0.415998 90.4558 0.351999L97.4958 18.88L104.376 0.447998H105.88C107.608 0.447998 108.962 0.415998 109.944 0.351999V0.991999ZM132.251 0.991999C131.504 1.03466 130.949 1.152 130.587 1.344C130.224 1.51466 129.979 1.81333 129.851 2.24C129.723 2.64533 129.659 3.25333 129.659 4.064V13.696C129.659 15.232 129.552 16.5547 129.339 17.664C129.147 18.752 128.816 19.6907 128.347 20.48C127.813 21.3973 127.024 22.1227 125.979 22.656C124.955 23.1893 123.792 23.456 122.491 23.456C120.144 23.456 118.352 22.88 117.115 21.728C116.176 20.8533 115.547 19.8613 115.227 18.752C114.907 17.6427 114.747 15.9893 114.747 13.792V3.744C114.747 2.93333 114.683 2.34667 114.555 1.984C114.427 1.62133 114.181 1.376 113.819 1.248C113.477 1.12 112.923 1.03466 112.155 0.991999V0.351999C113.051 0.415998 114.416 0.447998 116.251 0.447998C117.979 0.447998 119.333 0.415998 120.315 0.351999V0.991999C119.547 1.03466 118.981 1.12 118.619 1.248C118.277 1.376 118.043 1.62133 117.915 1.984C117.787 2.34667 117.723 2.93333 117.723 3.744V14.336C117.723 16.0427 117.84 17.4613 118.075 18.592C118.309 19.7227 118.789 20.6293 119.515 21.312C120.261 21.9947 121.349 22.336 122.779 22.336C125.04 22.336 126.629 21.6107 127.547 20.16C128.464 18.7093 128.923 16.672 128.923 14.048V4.064C128.923 2.912 128.709 2.12267 128.283 1.696C127.877 1.26933 127.12 1.03466 126.011 0.991999V0.351999C126.779 0.415998 127.867 0.447998 129.275 0.447998C130.555 0.447998 131.547 0.415998 132.251 0.351999V0.991999ZM141.295 -1.90735e-06C142.234 -1.90735e-06 142.97 0.106665 143.503 0.319998C144.058 0.511998 144.623 0.799998 145.199 1.184C145.669 1.48266 146.031 1.632 146.287 1.632C146.479 1.632 146.629 1.52533 146.735 1.312C146.842 1.07733 146.927 0.714666 146.991 0.223999H147.727C147.621 1.46133 147.567 3.63733 147.567 6.752H146.831C146.703 5.024 146.202 3.57333 145.327 2.4C144.474 1.20533 143.226 0.607998 141.583 0.607998C140.431 0.607998 139.493 0.959998 138.767 1.664C138.042 2.34666 137.679 3.232 137.679 4.32C137.679 5.13067 137.861 5.83467 138.223 6.432C138.607 7.02933 139.087 7.54133 139.663 7.968C140.239 8.39467 141.061 8.93867 142.127 9.6L143.055 10.176C144.399 11.008 145.455 11.744 146.223 12.384C147.013 13.0027 147.642 13.7173 148.111 14.528C148.581 15.3387 148.815 16.288 148.815 17.376C148.815 19.3173 148.175 20.8213 146.895 21.888C145.615 22.9333 143.994 23.456 142.031 23.456C141.007 23.456 140.165 23.3493 139.503 23.136C138.863 22.9227 138.245 22.6347 137.647 22.272C137.178 21.9733 136.815 21.824 136.559 21.824C136.367 21.824 136.218 21.9413 136.111 22.176C136.005 22.3893 135.919 22.7413 135.855 23.232H135.119C135.205 22.0587 135.247 19.4987 135.247 15.552H135.983C136.133 17.7067 136.666 19.456 137.583 20.8C138.501 22.144 139.909 22.816 141.807 22.816C142.959 22.816 143.941 22.464 144.751 21.76C145.562 21.0347 145.967 19.968 145.967 18.56C145.967 17.3653 145.562 16.352 144.751 15.52C143.962 14.688 142.703 13.7493 140.975 12.704C139.717 11.936 138.693 11.2533 137.903 10.656C137.135 10.0587 136.506 9.344 136.015 8.512C135.525 7.65867 135.279 6.66667 135.279 5.536C135.279 3.744 135.855 2.37866 137.007 1.44C138.159 0.479998 139.589 -1.90735e-06 141.295 -1.90735e-06Z" fill="white"/>
</svg>
